# xmcd CD database file
# Copyright (C) 1997 Ti Kan
# 
# Track frame offsets:
#     150
#     20240
#     33402
#     46412
#     62482
#     78412
#     86485
#     104222
#     118327
# 
# Disc length: 1672 seconds
# 
# Revision: 1
# Processed by: cddbd v1.4b41PL1 Copyright (c) Steve Scherf et al.
# Submitted via: DiscPlay 4.0.3
# 
DISCID=7a068609
DTITLE=Mike Bloomfield - The Root of The Blues
DYEAR=1900
DGENRE=
TTITLE0=City Girl
TTITLE1=The Train is Gone
TTITLE2=Hey Foreman
TTITLE3=WDIA
TTITLE4=Death Cell Rounder Blues
TTITLE5=Thrift Shop Rag
TTITLE6=Death in the Family
TTITLE7=Kansas City
TTITLE8=East Colorado Blues
EXTD=
EXTT0=
EXTT1=
EXTT2=
EXTT3=
EXTT4=
EXTT5=
EXTT6=
EXTT7=
EXTT8=
PLAYORDER=
